<svg xmlns="http://www.w3.org/2000/svg" xmlns:xlink="http://www.w3.org/1999/xlink" width="500" zoomAndPan="magnify" viewBox="0 0 375 374.999991" height="500" preserveAspectRatio="xMidYMid meet" version="1.0"><defs><clipPath id="d64c8fb106"><path d="M 36.015625 106.890625 L 339 106.890625 L 339 268.109375 L 36.015625 268.109375 Z M 36.015625 106.890625 " clip-rule="nonzero"/></clipPath><clipPath id="c2113a92ec"><path d="M 88.515625 106.890625 L 286.484375 106.890625 C 300.40625 106.890625 313.761719 112.421875 323.605469 122.265625 C 333.453125 132.113281 338.984375 145.464844 338.984375 159.390625 L 338.984375 215.609375 C 338.984375 229.535156 333.453125 242.886719 323.605469 252.734375 C 313.761719 262.578125 300.40625 268.109375 286.484375 268.109375 L 88.515625 268.109375 C 74.59375 268.109375 61.238281 262.578125 51.394531 252.734375 C 41.546875 242.886719 36.015625 229.535156 36.015625 215.609375 L 36.015625 159.390625 C 36.015625 145.464844 41.546875 132.113281 51.394531 122.265625 C 61.238281 112.421875 74.59375 106.890625 88.515625 106.890625 Z M 88.515625 106.890625 " clip-rule="nonzero"/></clipPath><clipPath id="db65467f41"><path d="M 36.023438 106.890625 L 339 106.890625 L 339 268.140625 L 36.023438 268.140625 Z M 36.023438 106.890625 " clip-rule="nonzero"/></clipPath><clipPath id="be2fdbd926"><path d="M 88.519531 106.890625 L 286.480469 106.890625 C 300.402344 106.890625 313.753906 112.421875 323.601562 122.265625 C 333.445312 132.109375 338.976562 145.464844 338.976562 159.386719 L 338.976562 215.605469 C 338.976562 229.53125 333.445312 242.882812 323.601562 252.726562 C 313.753906 262.574219 300.402344 268.105469 286.480469 268.105469 L 88.519531 268.105469 C 74.597656 268.105469 61.242188 262.574219 51.398438 252.726562 C 41.554688 242.882812 36.023438 229.53125 36.023438 215.605469 L 36.023438 159.386719 C 36.023438 145.464844 41.554688 132.109375 51.398438 122.265625 C 61.242188 112.421875 74.597656 106.890625 88.519531 106.890625 Z M 88.519531 106.890625 " clip-rule="nonzero"/></clipPath></defs><rect x="-37.5" width="450" fill="#ffffff" y="-37.499999" height="449.999989" fill-opacity="1"/><rect x="-37.5" width="450" fill="#ffffff" y="-37.499999" height="449.999989" fill-opacity="1"/><g clip-path="url(#d64c8fb106)"><g clip-path="url(#c2113a92ec)"><path fill="#efecec" d="M 36.015625 106.890625 L 338.9375 106.890625 L 338.9375 268.109375 L 36.015625 268.109375 Z M 36.015625 106.890625 " fill-opacity="1" fill-rule="nonzero"/></g></g><g clip-path="url(#db65467f41)"><g clip-path="url(#be2fdbd926)"><path stroke-linecap="butt" transform="matrix(0.75, 0, 0, 0.75, 36.022506, 106.889525)" fill="none" stroke-linejoin="miter" d="M 69.996043 0.00146669 L 333.943994 0.00146669 C 352.506496 0.00146669 370.308582 7.376468 383.438792 20.501469 C 396.563794 33.626471 403.938795 51.433765 403.938795 69.996267 L 403.938795 144.95461 C 403.938795 163.522321 396.563794 181.324407 383.438792 194.449409 C 370.308582 207.579619 352.506496 214.95462 333.943994 214.95462 L 69.996043 214.95462 C 51.433541 214.95462 33.626247 207.579619 20.501245 194.449409 C 7.376243 181.324407 0.00124235 163.522321 0.00124235 144.95461 L 0.00124235 69.996267 C 0.00124235 51.433765 7.376243 33.626471 20.501245 20.501469 C 33.626247 7.376468 51.433541 0.00146669 69.996043 0.00146669 Z M 69.996043 0.00146669 " stroke="#b2b2b2" stroke-width="8" stroke-opacity="1" stroke-miterlimit="4"/></g></g></svg>