<svg xmlns="http://www.w3.org/2000/svg" xmlns:xlink="http://www.w3.org/1999/xlink" width="1080" zoomAndPan="magnify" viewBox="0 0 810 383.999986" height="512" preserveAspectRatio="xMidYMid meet" version="1.0"><rect x="-81" width="972" fill="#ffffff" y="-38.399999" height="460.799983" fill-opacity="1"/><rect x="-81" width="972" fill="#ffffff" y="-38.399999" height="460.799983" fill-opacity="1"/><rect x="-81" width="972" fill="#39becb" y="-38.399999" height="460.799983" fill-opacity="1"/><path fill="#ffffff" d="M 404.355469 -2136.855469 C 376 -1918.625 295.414062 -1707.355469 171.226562 -1525.679688 C 94.058594 -1412.785156 0.917969 -1311.890625 -84.933594 -1205.449219 C -170.785156 -1099.011719 -250.515625 -984.84375 -295.023438 -855.546875 C -371.101562 -634.539062 -333.019531 -377.695312 -196.644531 -187.871094 C -60.273438 1.953125 170.621094 119.953125 404.355469 119.953125 C 638.085938 119.953125 868.984375 1.953125 1005.355469 -187.871094 C 1141.726562 -377.695312 1179.808594 -634.539062 1103.730469 -855.546875 C 1059.222656 -984.84375 979.492188 -1099.011719 893.644531 -1205.449219 C 807.792969 -1311.890625 714.648438 -1412.785156 637.480469 -1525.679688 C 513.292969 -1707.355469 432.707031 -1918.625 404.355469 -2136.855469 Z M 404.355469 -2136.855469 " fill-opacity="1" fill-rule="nonzero"/></svg>