<svg xmlns="http://www.w3.org/2000/svg" xmlns:xlink="http://www.w3.org/1999/xlink" width="500" zoomAndPan="magnify" viewBox="0 0 375 374.999991" height="500" preserveAspectRatio="xMidYMid meet" version="1.0"><defs><clipPath id="4dc7aca4bc"><path d="M 0 93.75 L 375 93.75 L 375 280.5 L 0 280.5 Z M 0 93.75 " clip-rule="nonzero"/></clipPath></defs><g clip-path="url(#4dc7aca4bc)"><path fill="#b2b2b2" d="M 93.578125 93.75 L 281.40625 93.75 C 333.023438 93.75 374.929688 135.59375 374.929688 187.132812 C 374.929688 238.675781 333.023438 280.519531 281.40625 280.519531 L 93.578125 280.519531 C 41.960938 280.519531 0.0546875 238.675781 0.0546875 187.132812 C 0.0546875 135.59375 41.960938 93.75 93.578125 93.75 Z M 93.578125 93.75 " fill-opacity="1" fill-rule="nonzero"/></g><path fill="#ffffff" d="M 94.886719 270.074219 C 140.761719 270.074219 177.949219 232.941406 177.949219 187.132812 C 177.949219 141.328125 140.761719 104.195312 94.886719 104.195312 C 49.015625 104.195312 11.824219 141.328125 11.824219 187.132812 C 11.824219 232.941406 49.015625 270.074219 94.886719 270.074219 Z M 94.886719 270.074219 " fill-opacity="1" fill-rule="nonzero"/></svg>