<svg xmlns="http://www.w3.org/2000/svg" xmlns:xlink="http://www.w3.org/1999/xlink" width="500" zoomAndPan="magnify" viewBox="0 0 375 374.999991" height="500" preserveAspectRatio="xMidYMid meet" version="1.0"><defs><clipPath id="fbaeff0efd"><path d="M 0 97.734375 L 374 97.734375 L 374 276.984375 L 0 276.984375 Z M 0 97.734375 " clip-rule="nonzero"/></clipPath></defs><g clip-path="url(#fbaeff0efd)"><path fill="#39becb" d="M 284.164062 276.996094 L 90.355469 276.996094 C 40.847656 276.996094 0.714844 236.863281 0.714844 187.359375 C 0.714844 137.855469 40.847656 97.722656 90.355469 97.722656 L 284.164062 97.722656 C 333.671875 97.722656 373.804688 137.855469 373.804688 187.359375 C 373.804688 236.863281 333.671875 276.996094 284.164062 276.996094 " fill-opacity="1" fill-rule="nonzero"/></g><path fill="#ffffff" d="M 358.660156 187.359375 C 358.660156 229.171875 324.765625 263.066406 282.953125 263.066406 C 241.140625 263.066406 207.246094 229.171875 207.246094 187.359375 C 207.246094 145.546875 241.140625 111.652344 282.953125 111.652344 C 324.765625 111.652344 358.660156 145.546875 358.660156 187.359375 " fill-opacity="1" fill-rule="nonzero"/></svg>