<svg xmlns="http://www.w3.org/2000/svg" xmlns:xlink="http://www.w3.org/1999/xlink" width="500" zoomAndPan="magnify" viewBox="0 0 375 374.999991" height="500" preserveAspectRatio="xMidYMid meet" version="1.0"><defs><clipPath id="5df4341980"><path d="M 153.035156 171 L 222 171 L 222 204 L 153.035156 204 Z M 153.035156 171 " clip-rule="nonzero"/></clipPath></defs><rect x="-37.5" width="450" fill="#ffffff" y="-37.499999" height="449.999989" fill-opacity="1"/><rect x="-37.5" width="450" fill="#ffffff" y="-37.499999" height="449.999989" fill-opacity="1"/><g clip-path="url(#5df4341980)"><path fill="#39becb" d="M 205.34375 204.003906 L 169.664062 204.003906 C 160.550781 204.003906 153.160156 196.613281 153.160156 187.5 C 153.160156 178.386719 160.550781 170.996094 169.664062 170.996094 L 205.34375 170.996094 C 214.457031 170.996094 221.847656 178.386719 221.847656 187.5 C 221.847656 196.613281 214.457031 204.003906 205.34375 204.003906 " fill-opacity="1" fill-rule="nonzero"/></g><path fill="#ffffff" d="M 219.058594 187.5 C 219.058594 195.199219 212.820312 201.4375 205.121094 201.4375 C 197.425781 201.4375 191.183594 195.199219 191.183594 187.5 C 191.183594 179.800781 197.425781 173.5625 205.121094 173.5625 C 212.820312 173.5625 219.058594 179.800781 219.058594 187.5 " fill-opacity="1" fill-rule="nonzero"/></svg>