<svg xmlns="http://www.w3.org/2000/svg" xmlns:xlink="http://www.w3.org/1999/xlink" width="500" zoomAndPan="magnify" viewBox="0 0 375 374.999991" height="500" preserveAspectRatio="xMidYMid meet" version="1.0"><defs><clipPath id="35a38bae17"><path d="M 154.417969 171 L 220.417969 171 L 220.417969 204 L 154.417969 204 Z M 154.417969 171 " clip-rule="nonzero"/></clipPath></defs><g clip-path="url(#35a38bae17)"><path fill="#b2b2b2" d="M 170.886719 171 L 203.945312 171 C 213.03125 171 220.40625 178.394531 220.40625 187.5 C 220.40625 196.609375 213.03125 204.003906 203.945312 204.003906 L 170.886719 204.003906 C 161.800781 204.003906 154.425781 196.609375 154.425781 187.5 C 154.425781 178.394531 161.800781 171 170.886719 171 Z M 170.886719 171 " fill-opacity="1" fill-rule="nonzero"/></g><path fill="#ffffff" d="M 171.117188 202.15625 C 179.191406 202.15625 185.738281 195.597656 185.738281 187.5 C 185.738281 179.40625 179.191406 172.847656 171.117188 172.847656 C 163.042969 172.847656 156.496094 179.40625 156.496094 187.5 C 156.496094 195.597656 163.042969 202.15625 171.117188 202.15625 Z M 171.117188 202.15625 " fill-opacity="1" fill-rule="nonzero"/></svg>