<svg xmlns="http://www.w3.org/2000/svg" xmlns:xlink="http://www.w3.org/1999/xlink" width="500" zoomAndPan="magnify" viewBox="0 0 375 374.999991" height="500" preserveAspectRatio="xMidYMid meet" version="1.0"><defs><g/><clipPath id="6659fee475"><path d="M 76 47 L 299 47 L 299 236.898438 L 76 236.898438 Z M 76 47 " clip-rule="nonzero"/></clipPath></defs><g clip-path="url(#6659fee475)"><path fill="#b4b4b4" d="M 288.167969 70.9375 C 272.070312 45.570312 238.5 43.53125 217.523438 50.714844 C 201.246094 56.304688 189.539062 71.824219 187.496094 74.488281 C 185.457031 71.824219 174.191406 56.613281 157.917969 51.070312 C 136.941406 43.886719 102.925781 45.570312 86.824219 70.9375 C 80.4375 81.007812 60.347656 113.558594 103.898438 163.851562 C 103.898438 163.851562 145.101562 211.4375 183.152344 234.453125 C 184.882812 235.472656 187.097656 236.847656 187.277344 236.761719 C 187.453125 236.847656 189.890625 235.519531 191.621094 234.453125 C 229.671875 211.4375 271.09375 163.851562 271.09375 163.851562 C 314.644531 113.558594 294.554688 81.007812 288.167969 70.9375 Z M 288.167969 70.9375 " fill-opacity="1" fill-rule="nonzero"/></g><path fill="#ffffff" d="M 180.535156 189.394531 C 179.027344 189.394531 177.652344 188.464844 177.121094 187 L 151.085938 117.503906 L 141.242188 149.125 C 140.753906 150.632812 139.335938 151.789062 137.738281 151.789062 L 109.796875 151.789062 C 107.757812 151.789062 106.117188 150.058594 106.117188 148.015625 C 106.117188 145.976562 107.757812 144.246094 109.796875 144.246094 L 135.03125 144.246094 L 147.273438 105.085938 C 147.761719 103.578125 149.089844 102.558594 150.6875 102.515625 C 152.285156 102.472656 153.660156 103.445312 154.234375 104.910156 L 179.957031 173.5625 L 193.484375 121.675781 C 193.882812 120.167969 195.167969 119.101562 196.679688 118.96875 C 198.1875 118.835938 199.648438 119.632812 200.3125 121.054688 L 211.089844 143.714844 L 222.933594 96.21875 C 223.332031 94.664062 224.707031 93.511719 226.304688 93.46875 C 227.898438 93.378906 229.40625 94.398438 229.941406 95.90625 L 238.632812 120.609375 L 272.292969 120.699219 C 274.332031 120.699219 275.929688 122.074219 275.929688 124.070312 C 275.929688 126.109375 274.289062 127.441406 272.25 127.441406 L 235.972656 127.617188 C 234.417969 127.617188 233.042969 126.773438 232.511719 125.3125 L 227.011719 109.746094 L 215.613281 155.335938 C 215.261719 156.84375 213.972656 157.953125 212.421875 158.128906 C 210.871094 158.261719 209.40625 157.464844 208.742188 156.042969 L 197.875 133.25 L 183.949219 186.644531 C 183.550781 188.199219 182.175781 189.304688 180.578125 189.394531 C 180.667969 189.394531 180.625 189.394531 180.535156 189.394531 Z M 180.535156 189.394531 " fill-opacity="1" fill-rule="nonzero"/><path fill="#ffffff" d="M 117.335938 147.21875 C 117.335938 147.742188 117.285156 148.257812 117.183594 148.769531 C 117.082031 149.277344 116.933594 149.777344 116.734375 150.257812 C 116.535156 150.738281 116.289062 151.195312 116 151.628906 C 115.710938 152.0625 115.382812 152.464844 115.011719 152.832031 C 114.644531 153.203125 114.242188 153.53125 113.808594 153.820312 C 113.375 154.109375 112.917969 154.355469 112.4375 154.554688 C 111.957031 154.753906 111.457031 154.902344 110.949219 155.003906 C 110.4375 155.105469 109.921875 155.15625 109.398438 155.15625 C 108.878906 155.15625 108.363281 155.105469 107.851562 155.003906 C 107.339844 154.902344 106.84375 154.753906 106.359375 154.554688 C 105.878906 154.355469 105.421875 154.109375 104.988281 153.820312 C 104.554688 153.53125 104.152344 153.199219 103.785156 152.832031 C 103.417969 152.464844 103.089844 152.0625 102.796875 151.628906 C 102.507812 151.195312 102.265625 150.738281 102.066406 150.257812 C 101.867188 149.777344 101.714844 149.277344 101.613281 148.769531 C 101.511719 148.257812 101.460938 147.742188 101.460938 147.21875 C 101.460938 146.699219 101.511719 146.183594 101.613281 145.671875 C 101.714844 145.160156 101.867188 144.664062 102.066406 144.179688 C 102.265625 143.699219 102.507812 143.242188 102.796875 142.808594 C 103.089844 142.375 103.417969 141.972656 103.785156 141.605469 C 104.152344 141.238281 104.554688 140.910156 104.988281 140.617188 C 105.421875 140.328125 105.878906 140.085938 106.359375 139.886719 C 106.84375 139.6875 107.339844 139.535156 107.851562 139.433594 C 108.363281 139.332031 108.878906 139.28125 109.398438 139.28125 C 109.921875 139.28125 110.4375 139.332031 110.949219 139.433594 C 111.457031 139.535156 111.957031 139.6875 112.4375 139.886719 C 112.917969 140.085938 113.375 140.328125 113.808594 140.617188 C 114.242188 140.910156 114.644531 141.238281 115.011719 141.605469 C 115.382812 141.972656 115.710938 142.375 116 142.808594 C 116.289062 143.242188 116.535156 143.699219 116.734375 144.179688 C 116.933594 144.664062 117.082031 145.160156 117.183594 145.671875 C 117.285156 146.183594 117.335938 146.699219 117.335938 147.21875 Z M 117.335938 147.21875 " fill-opacity="1" fill-rule="nonzero"/><path fill="#ffffff" d="M 283.691406 124.203125 C 283.691406 124.722656 283.640625 125.238281 283.539062 125.75 C 283.4375 126.261719 283.285156 126.757812 283.085938 127.238281 C 282.886719 127.722656 282.640625 128.179688 282.351562 128.613281 C 282.0625 129.046875 281.734375 129.445312 281.367188 129.816406 C 280.996094 130.183594 280.59375 130.511719 280.164062 130.804688 C 279.730469 131.09375 279.269531 131.335938 278.789062 131.535156 C 278.308594 131.734375 277.8125 131.886719 277.300781 131.988281 C 276.789062 132.089844 276.273438 132.140625 275.75 132.140625 C 275.230469 132.140625 274.714844 132.089844 274.203125 131.988281 C 273.691406 131.886719 273.195312 131.734375 272.714844 131.535156 C 272.234375 131.335938 271.773438 131.09375 271.339844 130.804688 C 270.90625 130.511719 270.507812 130.183594 270.136719 129.816406 C 269.769531 129.445312 269.441406 129.046875 269.152344 128.613281 C 268.863281 128.179688 268.617188 127.722656 268.417969 127.238281 C 268.21875 126.757812 268.066406 126.261719 267.964844 125.75 C 267.863281 125.238281 267.8125 124.722656 267.8125 124.203125 C 267.8125 123.679688 267.863281 123.164062 267.964844 122.652344 C 268.066406 122.140625 268.21875 121.644531 268.417969 121.164062 C 268.617188 120.683594 268.863281 120.226562 269.152344 119.792969 C 269.441406 119.359375 269.769531 118.957031 270.136719 118.589844 C 270.507812 118.21875 270.90625 117.890625 271.339844 117.601562 C 271.773438 117.3125 272.234375 117.066406 272.714844 116.867188 C 273.195312 116.667969 273.691406 116.519531 274.203125 116.417969 C 274.714844 116.316406 275.230469 116.265625 275.75 116.265625 C 276.273438 116.265625 276.789062 116.316406 277.300781 116.417969 C 277.8125 116.519531 278.308594 116.667969 278.789062 116.867188 C 279.269531 117.066406 279.730469 117.3125 280.164062 117.601562 C 280.59375 117.890625 280.996094 118.21875 281.367188 118.589844 C 281.734375 118.957031 282.0625 119.359375 282.351562 119.792969 C 282.640625 120.226562 282.886719 120.683594 283.085938 121.164062 C 283.285156 121.644531 283.4375 122.140625 283.539062 122.652344 C 283.640625 123.164062 283.691406 123.679688 283.691406 124.203125 Z M 283.691406 124.203125 " fill-opacity="1" fill-rule="nonzero"/><g fill="#737373" fill-opacity="1"><g transform="translate(99.608568, 324.947736)"><g><path d="M 12.828125 -17.109375 L 12.828125 0 L 3.109375 0 L 3.109375 -42.65625 L 12.828125 -42.65625 L 12.828125 -25.640625 L 26.578125 -25.640625 L 26.578125 -42.65625 L 36.296875 -42.65625 L 36.296875 0 L 26.578125 0 L 26.578125 -17.109375 Z M 12.828125 -17.109375 "/></g></g></g><g fill="#737373" fill-opacity="1"><g transform="translate(138.983765, 324.947736)"><g><path d="M 29.9375 -12 L 10.703125 -12 C 10.703125 -10.132812 11.304688 -8.753906 12.515625 -7.859375 C 13.722656 -6.960938 15.03125 -6.515625 16.4375 -6.515625 C 17.925781 -6.515625 19.097656 -6.710938 19.953125 -7.109375 C 20.816406 -7.503906 21.800781 -8.289062 22.90625 -9.46875 L 29.515625 -6.15625 C 26.765625 -1.53125 22.179688 0.78125 15.765625 0.78125 C 11.765625 0.78125 8.332031 -0.585938 5.46875 -3.328125 C 2.613281 -6.066406 1.1875 -9.367188 1.1875 -13.234375 C 1.1875 -17.097656 2.613281 -20.40625 5.46875 -23.15625 C 8.332031 -25.914062 11.765625 -27.296875 15.765625 -27.296875 C 19.972656 -27.296875 23.394531 -26.082031 26.03125 -23.65625 C 28.664062 -21.226562 29.984375 -17.753906 29.984375 -13.234375 C 29.984375 -12.617188 29.96875 -12.207031 29.9375 -12 Z M 10.96875 -17.0625 L 21.046875 -17.0625 C 20.835938 -18.4375 20.289062 -19.492188 19.40625 -20.234375 C 18.53125 -20.984375 17.40625 -21.359375 16.03125 -21.359375 C 14.507812 -21.359375 13.300781 -20.957031 12.40625 -20.15625 C 11.507812 -19.363281 11.03125 -18.332031 10.96875 -17.0625 Z M 10.96875 -17.0625 "/></g></g></g><g fill="#737373" fill-opacity="1"><g transform="translate(170.142884, 324.947736)"><g><path d="M 4.90625 -3.28125 C 2.425781 -5.988281 1.1875 -9.304688 1.1875 -13.234375 C 1.1875 -17.160156 2.425781 -20.484375 4.90625 -23.203125 C 7.394531 -25.929688 10.550781 -27.296875 14.375 -27.296875 C 17.882812 -27.296875 20.78125 -26.191406 23.0625 -23.984375 L 23.0625 -26.53125 L 32.21875 -26.53125 L 32.21875 0 L 23.15625 0 L 23.15625 -3 L 23.0625 -3 C 20.78125 -0.476562 17.882812 0.78125 14.375 0.78125 C 10.550781 0.78125 7.394531 -0.570312 4.90625 -3.28125 Z M 12.6875 -17.71875 C 11.5 -16.550781 10.90625 -15.054688 10.90625 -13.234375 C 10.90625 -11.410156 11.472656 -9.921875 12.609375 -8.765625 C 13.753906 -7.609375 15.253906 -7.03125 17.109375 -7.03125 C 18.898438 -7.03125 20.375 -7.613281 21.53125 -8.78125 C 22.6875 -9.957031 23.265625 -11.441406 23.265625 -13.234375 C 23.265625 -15.054688 22.671875 -16.550781 21.484375 -17.71875 C 20.296875 -18.894531 18.835938 -19.484375 17.109375 -19.484375 C 15.359375 -19.484375 13.882812 -18.894531 12.6875 -17.71875 Z M 12.6875 -17.71875 "/></g></g></g><g fill="#737373" fill-opacity="1"><g transform="translate(205.435882, 324.947736)"><g><path d="M 3.109375 0 L 3.109375 -44.46875 L 12.25 -44.46875 L 12.25 0 Z M 3.109375 0 "/></g></g></g><g fill="#737373" fill-opacity="1"><g transform="translate(220.782908, 324.947736)"><g><path d="M 4.65625 -26.53125 L 4.65625 -36.40625 L 13.8125 -36.40625 L 13.8125 -26.53125 L 19.390625 -26.53125 L 19.390625 -19.546875 L 13.8125 -19.546875 L 13.8125 -11.109375 C 13.8125 -8.660156 14.5 -7.4375 15.875 -7.4375 C 16.21875 -7.4375 16.578125 -7.503906 16.953125 -7.640625 C 17.335938 -7.785156 17.632812 -7.925781 17.84375 -8.0625 L 18.140625 -8.265625 L 20.421875 -0.875 C 18.453125 0.226562 16.210938 0.78125 13.703125 0.78125 C 11.972656 0.78125 10.488281 0.476562 9.25 -0.125 C 8.007812 -0.726562 7.070312 -1.535156 6.4375 -2.546875 C 5.800781 -3.566406 5.34375 -4.632812 5.0625 -5.75 C 4.789062 -6.875 4.65625 -8.078125 4.65625 -9.359375 L 4.65625 -19.546875 L 0.828125 -19.546875 L 0.828125 -26.53125 Z M 4.65625 -26.53125 "/></g></g></g><g fill="#737373" fill-opacity="1"><g transform="translate(241.193946, 324.947736)"><g><path d="M 3.109375 0 L 3.109375 -44.46875 L 12.25 -44.46875 L 12.25 -23.734375 L 12.359375 -23.734375 C 14.734375 -26.109375 17.265625 -27.296875 19.953125 -27.296875 C 21.265625 -27.296875 22.566406 -27.125 23.859375 -26.78125 C 25.148438 -26.4375 26.390625 -25.898438 27.578125 -25.171875 C 28.773438 -24.453125 29.742188 -23.425781 30.484375 -22.09375 C 31.222656 -20.769531 31.59375 -19.226562 31.59375 -17.46875 L 31.59375 0 L 22.4375 0 L 22.4375 -15 C 22.4375 -16.375 21.992188 -17.578125 21.109375 -18.609375 C 20.234375 -19.648438 19.09375 -20.171875 17.6875 -20.171875 C 16.300781 -20.171875 15.046875 -19.632812 13.921875 -18.5625 C 12.804688 -17.488281 12.25 -16.300781 12.25 -15 L 12.25 0 Z M 3.109375 0 "/></g></g></g></svg>