<svg xmlns="http://www.w3.org/2000/svg" xmlns:xlink="http://www.w3.org/1999/xlink" width="500" zoomAndPan="magnify" viewBox="0 0 375 374.999991" height="500" preserveAspectRatio="xMidYMid meet" version="1.0"><defs><clipPath id="2ce167fc0f"><path d="M 89 38 L 286 38 L 286 337.5 L 89 337.5 Z M 89 38 " clip-rule="nonzero"/></clipPath></defs><rect x="-37.5" width="450" fill="#ffffff" y="-37.499999" height="449.999989" fill-opacity="1"/><rect x="-37.5" width="450" fill="#ffffff" y="-37.499999" height="449.999989" fill-opacity="1"/><g clip-path="url(#2ce167fc0f)"><path fill="#b4b4b4" d="M 187.410156 38.070312 C 183.652344 66.992188 172.972656 94.992188 156.515625 119.070312 C 146.285156 134.03125 133.941406 147.40625 122.5625 161.511719 C 111.1875 175.617188 100.617188 190.75 94.71875 207.886719 C 84.636719 237.175781 89.683594 271.21875 107.757812 296.375 C 125.832031 321.535156 156.433594 337.171875 187.410156 337.171875 C 218.390625 337.171875 248.992188 321.535156 267.066406 296.375 C 285.136719 271.21875 290.1875 237.175781 280.101562 207.886719 C 274.203125 190.75 263.636719 175.617188 252.257812 161.511719 C 240.878906 147.40625 228.535156 134.03125 218.308594 119.070312 C 201.847656 94.992188 191.167969 66.992188 187.410156 38.070312 Z M 187.410156 38.070312 " fill-opacity="1" fill-rule="nonzero"/></g><path fill="#b4b4b4" d="M 155.796875 148.335938 C 153.253906 150.257812 150.824219 152.324219 148.511719 154.515625 C 150.871094 152.375 153.300781 150.3125 155.796875 148.335938 Z M 148.511719 154.515625 C 135.472656 166.355469 124.628906 180.613281 116.738281 196.363281 C 108.21875 213.371094 103.109375 232.5625 105.285156 251.460938 C 107.300781 268.929688 115.671875 285.597656 128.484375 297.640625 L 143.964844 277.136719 C 136.472656 268.9375 130.5625 259.296875 126.65625 248.902344 C 120.078125 231.390625 119.316406 211.746094 124.523438 193.777344 C 128.84375 178.871094 137.25 165.1875 148.511719 154.515625 Z M 147.929688 280.683594 L 132.519531 301.296875 C 135.917969 305.378906 139.710938 309.128906 143.828125 312.480469 C 146.929688 315.003906 150.21875 317.300781 153.660156 319.347656 L 171.160156 297.355469 C 163.902344 293.3125 157.050781 288.546875 150.730469 283.152344 C 149.785156 282.34375 148.851562 281.519531 147.929688 280.683594 Z M 147.929688 280.683594 " fill-opacity="1" fill-rule="nonzero"/></svg>