<svg xmlns="http://www.w3.org/2000/svg" xmlns:xlink="http://www.w3.org/1999/xlink" width="500" zoomAndPan="magnify" viewBox="0 0 375 374.999991" height="500" preserveAspectRatio="xMidYMid meet" version="1.0"><defs><clipPath id="956c10ff56"><path d="M 0 118.914062 L 375 118.914062 L 375 364.183594 L 0 364.183594 Z M 0 118.914062 " clip-rule="nonzero"/></clipPath><clipPath id="621d001714"><path d="M 77 0 L 298 0 L 298 337.5 L 77 337.5 Z M 77 0 " clip-rule="nonzero"/></clipPath></defs><rect x="-37.5" width="450" fill="#ffffff" y="-37.499999" height="449.999989" fill-opacity="1"/><rect x="-37.5" width="450" fill="#ffffff" y="-37.499999" height="449.999989" fill-opacity="1"/><g clip-path="url(#956c10ff56)"><path fill="#fdfdfd" d="M 0 118.914062 L 374.613281 118.914062 L 374.613281 364.183594 L 0 364.183594 Z M 0 118.914062 " fill-opacity="1" fill-rule="nonzero"/></g><g clip-path="url(#621d001714)"><path fill="#39becb" d="M 187.402344 0.632812 C 183.175781 33.175781 171.160156 64.675781 152.644531 91.765625 C 141.136719 108.597656 127.25 123.640625 114.449219 139.511719 C 101.648438 155.382812 89.757812 172.40625 83.121094 191.683594 C 71.78125 224.636719 77.457031 262.933594 97.792969 291.238281 C 118.125 319.542969 152.554688 337.136719 187.402344 337.136719 C 222.253906 337.136719 256.683594 319.542969 277.015625 291.238281 C 297.351562 262.933594 303.027344 224.636719 291.683594 191.683594 C 285.046875 172.40625 273.160156 155.382812 260.359375 139.511719 C 247.558594 123.640625 233.671875 108.597656 222.164062 91.765625 C 203.648438 64.675781 191.632812 33.175781 187.402344 0.632812 Z M 187.402344 0.632812 " fill-opacity="1" fill-rule="nonzero"/></g><path fill="#39becb" d="M 151.835938 124.6875 C 148.976562 126.851562 146.242188 129.175781 143.640625 131.640625 C 146.292969 129.234375 149.027344 126.910156 151.835938 124.6875 Z M 143.640625 131.640625 C 128.96875 144.960938 116.773438 161.003906 107.894531 178.722656 C 98.308594 197.859375 92.558594 219.445312 95.011719 240.707031 C 97.277344 260.363281 106.695312 279.113281 121.109375 292.664062 L 138.523438 269.59375 C 130.097656 260.371094 123.449219 249.523438 119.054688 237.828125 C 111.648438 218.125 110.796875 196.027344 116.652344 175.8125 C 121.511719 159.042969 130.972656 143.648438 143.640625 131.640625 Z M 142.984375 273.585938 L 125.652344 296.777344 C 129.46875 301.367188 133.738281 305.589844 138.371094 309.359375 C 141.863281 312.199219 145.5625 314.78125 149.429688 317.082031 L 169.121094 292.339844 C 160.957031 287.792969 153.246094 282.433594 146.136719 276.359375 C 145.074219 275.453125 144.023438 274.527344 142.984375 273.585938 Z M 142.984375 273.585938 " fill-opacity="1" fill-rule="nonzero"/></svg>