<svg xmlns="http://www.w3.org/2000/svg" xmlns:xlink="http://www.w3.org/1999/xlink" width="500" zoomAndPan="magnify" viewBox="0 0 375 374.999991" height="500" preserveAspectRatio="xMidYMid meet" version="1.0"><defs><clipPath id="17fa978b95"><path d="M 22.972656 15.523438 L 367.007812 15.523438 L 367.007812 359.558594 L 22.972656 359.558594 Z M 22.972656 15.523438 " clip-rule="nonzero"/></clipPath><clipPath id="9e406c769a"><path d="M 194.988281 15.523438 C 99.988281 15.523438 22.972656 92.539062 22.972656 187.539062 C 22.972656 282.542969 99.988281 359.558594 194.988281 359.558594 C 289.992188 359.558594 367.007812 282.542969 367.007812 187.539062 C 367.007812 92.539062 289.992188 15.523438 194.988281 15.523438 Z M 194.988281 15.523438 " clip-rule="nonzero"/></clipPath><clipPath id="b5c5c34ec0"><path d="M 0 118.914062 L 375 118.914062 L 375 364.183594 L 0 364.183594 Z M 0 118.914062 " clip-rule="nonzero"/></clipPath><clipPath id="2b28f90e0e"><path d="M 30.121094 22.675781 L 359.855469 22.675781 L 359.855469 352.40625 L 30.121094 352.40625 Z M 30.121094 22.675781 " clip-rule="nonzero"/></clipPath><clipPath id="45ee67c2f4"><path d="M 194.988281 22.675781 C 103.9375 22.675781 30.121094 96.488281 30.121094 187.539062 C 30.121094 278.59375 103.9375 352.40625 194.988281 352.40625 C 286.042969 352.40625 359.855469 278.59375 359.855469 187.539062 C 359.855469 96.488281 286.042969 22.675781 194.988281 22.675781 Z M 194.988281 22.675781 " clip-rule="nonzero"/></clipPath><clipPath id="d617f946b1"><path d="M 129 87.554688 L 261 87.554688 L 261 286.738281 L 129 286.738281 Z M 129 87.554688 " clip-rule="nonzero"/></clipPath></defs><g clip-path="url(#17fa978b95)"><g clip-path="url(#9e406c769a)"><path fill="#b4b4b4" d="M 22.972656 15.523438 L 367.007812 15.523438 L 367.007812 359.558594 L 22.972656 359.558594 Z M 22.972656 15.523438 " fill-opacity="1" fill-rule="nonzero"/></g></g><g clip-path="url(#b5c5c34ec0)"><path fill="#fdfdfd" d="M 0 118.914062 L 374.613281 118.914062 L 374.613281 364.183594 L 0 364.183594 Z M 0 118.914062 " fill-opacity="1" fill-rule="nonzero"/></g><g clip-path="url(#2b28f90e0e)"><g clip-path="url(#45ee67c2f4)"><path fill="#fdfdfd" d="M 30.121094 22.675781 L 359.855469 22.675781 L 359.855469 352.40625 L 30.121094 352.40625 Z M 30.121094 22.675781 " fill-opacity="1" fill-rule="nonzero"/></g></g><g clip-path="url(#d617f946b1)"><path fill="#b4b4b4" d="M 194.929688 87.917969 C 192.425781 107.199219 185.308594 125.863281 174.335938 141.914062 C 167.519531 151.886719 159.289062 160.800781 151.703125 170.203125 C 144.121094 179.609375 137.074219 189.695312 133.144531 201.117188 C 126.421875 220.644531 129.785156 243.335938 141.835938 260.105469 C 153.882812 276.875 174.28125 287.300781 194.929688 287.300781 C 215.582031 287.300781 235.980469 276.875 248.027344 260.105469 C 260.078125 243.335938 263.441406 220.644531 256.71875 201.117188 C 252.789062 189.695312 245.742188 179.609375 238.160156 170.203125 C 230.574219 160.800781 222.34375 151.886719 215.527344 141.914062 C 204.554688 125.863281 197.4375 107.199219 194.929688 87.917969 Z M 194.929688 87.917969 " fill-opacity="1" fill-rule="nonzero"/></g><path fill="#b4b4b4" d="M 173.855469 161.421875 C 172.160156 162.703125 170.542969 164.082031 169 165.542969 C 170.574219 164.113281 172.191406 162.738281 173.855469 161.421875 Z M 169 165.542969 C 160.308594 173.433594 153.082031 182.9375 147.820312 193.4375 C 142.140625 204.773438 138.734375 217.566406 140.1875 230.164062 C 141.527344 241.808594 147.109375 252.917969 155.652344 260.949219 L 165.96875 247.28125 C 160.976562 241.816406 157.035156 235.386719 154.433594 228.457031 C 150.046875 216.785156 149.539062 203.691406 153.011719 191.710938 C 155.890625 181.777344 161.496094 172.65625 169 165.542969 Z M 168.613281 249.644531 L 158.339844 263.386719 C 160.605469 266.105469 163.132812 268.605469 165.878906 270.839844 C 167.949219 272.523438 170.140625 274.054688 172.433594 275.417969 L 184.097656 260.757812 C 179.261719 258.0625 174.691406 254.886719 170.480469 251.289062 C 169.851562 250.75 169.226562 250.203125 168.613281 249.644531 Z M 168.613281 249.644531 " fill-opacity="1" fill-rule="nonzero"/></svg>