<svg xmlns="http://www.w3.org/2000/svg" xmlns:xlink="http://www.w3.org/1999/xlink" width="1336" zoomAndPan="magnify" viewBox="0 0 1002 383.999986" height="512" preserveAspectRatio="xMidYMid meet" version="1.0"><defs><g/><clipPath id="bce5ebe6a4"><path d="M 63 33 L 272 33 L 272 351.269531 L 63 351.269531 Z M 63 33 " clip-rule="nonzero"/></clipPath></defs><g clip-path="url(#bce5ebe6a4)"><path fill="#39becb" d="M 167.183594 33.125 C 163.191406 63.875 151.835938 93.644531 134.335938 119.246094 C 123.460938 135.152344 110.335938 149.371094 98.238281 164.367188 C 86.140625 179.367188 74.90625 195.453125 68.636719 213.671875 C 57.914062 244.816406 63.28125 281.007812 82.5 307.757812 C 101.714844 334.503906 134.25 351.132812 167.183594 351.132812 C 200.121094 351.132812 232.65625 334.503906 251.871094 307.757812 C 271.089844 281.007812 276.457031 244.816406 265.734375 213.671875 C 259.464844 195.453125 248.230469 179.367188 236.132812 164.367188 C 224.035156 149.371094 210.910156 135.152344 200.035156 119.246094 C 182.535156 93.644531 171.179688 63.875 167.183594 33.125 Z M 167.183594 33.125 " fill-opacity="1" fill-rule="nonzero"/></g><path fill="#39becb" d="M 133.574219 150.359375 C 130.867188 152.402344 128.285156 154.601562 125.828125 156.929688 C 128.335938 154.65625 130.917969 152.460938 133.574219 150.359375 Z M 125.828125 156.929688 C 111.964844 169.519531 100.433594 184.679688 92.046875 201.421875 C 82.988281 219.507812 77.554688 239.910156 79.871094 260.003906 C 82.011719 278.578125 90.910156 296.296875 104.535156 309.101562 L 120.992188 287.300781 C 113.027344 278.582031 106.746094 268.335938 102.589844 257.28125 C 95.59375 238.664062 94.789062 217.777344 100.324219 198.671875 C 104.914062 182.824219 113.855469 168.277344 125.828125 156.929688 Z M 125.207031 291.074219 L 108.828125 312.988281 C 112.4375 317.328125 116.46875 321.316406 120.847656 324.878906 C 124.148438 327.5625 127.644531 330.003906 131.300781 332.179688 L 149.910156 308.796875 C 142.191406 304.5 134.902344 299.433594 128.1875 293.695312 C 127.183594 292.835938 126.1875 291.960938 125.207031 291.074219 Z M 125.207031 291.074219 " fill-opacity="1" fill-rule="nonzero"/><g fill="#222222" fill-opacity="1"><g transform="translate(319.104632, 258.595778)"><g><path d="M 165.015625 -112.6875 L 135.640625 0 L 102.40625 0 L 84.4375 -74.15625 L 65.8125 0 L 32.578125 0 L 4.015625 -112.6875 L 33.390625 -112.6875 L 49.59375 -30.65625 L 69.65625 -112.6875 L 99.84375 -112.6875 L 119.109375 -30.65625 L 135.46875 -112.6875 Z M 165.015625 -112.6875 "/></g></g></g><g fill="#222222" fill-opacity="1"><g transform="translate(487.949201, 258.595778)"><g><path d="M 4.5 -44.9375 C 4.5 -54.144531 6.234375 -62.222656 9.703125 -69.171875 C 13.179688 -76.128906 17.914062 -81.484375 23.90625 -85.234375 C 29.90625 -88.984375 36.597656 -90.859375 43.984375 -90.859375 C 50.296875 -90.859375 55.832031 -89.570312 60.59375 -87 C 65.351562 -84.425781 69.019531 -81.054688 71.59375 -76.890625 L 71.59375 -89.5625 L 99.03125 -89.5625 L 99.03125 0 L 71.59375 0 L 71.59375 -12.6875 C 68.914062 -8.507812 65.195312 -5.132812 60.4375 -2.5625 C 55.675781 0 50.140625 1.28125 43.828125 1.28125 C 36.546875 1.28125 29.90625 -0.613281 23.90625 -4.40625 C 17.914062 -8.207031 13.179688 -13.613281 9.703125 -20.625 C 6.234375 -27.632812 4.5 -35.738281 4.5 -44.9375 Z M 71.59375 -44.78125 C 71.59375 -51.632812 69.691406 -57.039062 65.890625 -61 C 62.085938 -64.957031 57.457031 -66.9375 52 -66.9375 C 46.550781 -66.9375 41.925781 -64.984375 38.125 -61.078125 C 34.320312 -57.171875 32.421875 -51.789062 32.421875 -44.9375 C 32.421875 -38.09375 34.320312 -32.660156 38.125 -28.640625 C 41.925781 -24.628906 46.550781 -22.625 52 -22.625 C 57.457031 -22.625 62.085938 -24.601562 65.890625 -28.5625 C 69.691406 -32.53125 71.59375 -37.9375 71.59375 -44.78125 Z M 71.59375 -44.78125 "/></g></g></g><g fill="#222222" fill-opacity="1"><g transform="translate(596.927785, 258.595778)"><g><path d="M 59.875 -23.28125 L 59.875 0 L 45.90625 0 C 35.957031 0 28.195312 -2.429688 22.625 -7.296875 C 17.0625 -12.171875 14.28125 -20.117188 14.28125 -31.140625 L 14.28125 -66.78125 L 3.375 -66.78125 L 3.375 -89.5625 L 14.28125 -89.5625 L 14.28125 -111.390625 L 41.734375 -111.390625 L 41.734375 -89.5625 L 59.71875 -89.5625 L 59.71875 -66.78125 L 41.734375 -66.78125 L 41.734375 -30.8125 C 41.734375 -28.144531 42.375 -26.222656 43.65625 -25.046875 C 44.945312 -23.867188 47.085938 -23.28125 50.078125 -23.28125 Z M 59.875 -23.28125 "/></g></g></g><g fill="#222222" fill-opacity="1"><g transform="translate(662.090225, 258.595778)"><g><path d="M 94.390625 -46.234375 C 94.390625 -43.660156 94.226562 -40.984375 93.90625 -38.203125 L 31.78125 -38.203125 C 32.207031 -32.640625 34 -28.382812 37.15625 -25.4375 C 40.3125 -22.5 44.191406 -21.03125 48.796875 -21.03125 C 55.640625 -21.03125 60.398438 -23.921875 63.078125 -29.703125 L 92.296875 -29.703125 C 90.796875 -23.804688 88.09375 -18.503906 84.1875 -13.796875 C 80.28125 -9.085938 75.382812 -5.394531 69.5 -2.71875 C 63.613281 -0.0507812 57.035156 1.28125 49.765625 1.28125 C 40.984375 1.28125 33.164062 -0.585938 26.3125 -4.328125 C 19.46875 -8.078125 14.117188 -13.425781 10.265625 -20.375 C 6.421875 -27.332031 4.5 -35.46875 4.5 -44.78125 C 4.5 -54.09375 6.394531 -62.222656 10.1875 -69.171875 C 13.988281 -76.128906 19.3125 -81.484375 26.15625 -85.234375 C 33.007812 -88.984375 40.878906 -90.859375 49.765625 -90.859375 C 58.429688 -90.859375 66.132812 -89.035156 72.875 -85.390625 C 79.613281 -81.753906 84.882812 -76.566406 88.6875 -69.828125 C 92.488281 -63.085938 94.390625 -55.222656 94.390625 -46.234375 Z M 66.296875 -53.453125 C 66.296875 -58.160156 64.6875 -61.90625 61.46875 -64.6875 C 58.257812 -67.46875 54.25 -68.859375 49.4375 -68.859375 C 44.832031 -68.859375 40.953125 -67.519531 37.796875 -64.84375 C 34.640625 -62.164062 32.6875 -58.367188 31.9375 -53.453125 Z M 66.296875 -53.453125 "/></g></g></g><g fill="#222222" fill-opacity="1"><g transform="translate(760.957397, 258.595778)"><g><path d="M 37.40625 -74.640625 C 40.613281 -79.566406 44.625 -83.445312 49.4375 -86.28125 C 54.25 -89.113281 59.597656 -90.53125 65.484375 -90.53125 L 65.484375 -61.484375 L 57.953125 -61.484375 C 51.097656 -61.484375 45.957031 -60.007812 42.53125 -57.0625 C 39.113281 -54.125 37.40625 -48.960938 37.40625 -41.578125 L 37.40625 0 L 9.953125 0 L 9.953125 -89.5625 L 37.40625 -89.5625 Z M 37.40625 -74.640625 "/></g></g></g><g fill="#222222" fill-opacity="1"><g transform="translate(851.705399, 258.595778)"><g><path d="M 42.859375 -118.9375 C 54.304688 -118.9375 63.476562 -115.941406 70.375 -109.953125 C 77.28125 -103.960938 80.734375 -95.507812 80.734375 -84.59375 C 80.734375 -74.53125 77.441406 -66.691406 70.859375 -61.078125 C 64.285156 -55.460938 55.59375 -52.597656 44.78125 -52.484375 L 43.984375 -40.453125 L 19.90625 -40.453125 L 19.09375 -70.3125 L 28.734375 -70.3125 C 36.972656 -70.3125 43.257812 -71.328125 47.59375 -73.359375 C 51.925781 -75.390625 54.09375 -79.082031 54.09375 -84.4375 C 54.09375 -88.175781 53.078125 -91.113281 51.046875 -93.25 C 49.015625 -95.394531 46.175781 -96.46875 42.53125 -96.46875 C 38.6875 -96.46875 35.691406 -95.367188 33.546875 -93.171875 C 31.410156 -90.984375 30.34375 -88.015625 30.34375 -84.265625 L 4.5 -84.265625 C 4.28125 -90.796875 5.640625 -96.679688 8.578125 -101.921875 C 11.523438 -107.171875 15.914062 -111.316406 21.75 -114.359375 C 27.582031 -117.410156 34.617188 -118.9375 42.859375 -118.9375 Z M 32.265625 1.28125 C 27.453125 1.28125 23.519531 -0.132812 20.46875 -2.96875 C 17.414062 -5.800781 15.890625 -9.304688 15.890625 -13.484375 C 15.890625 -17.765625 17.414062 -21.347656 20.46875 -24.234375 C 23.519531 -27.128906 27.453125 -28.578125 32.265625 -28.578125 C 36.972656 -28.578125 40.847656 -27.128906 43.890625 -24.234375 C 46.941406 -21.347656 48.46875 -17.765625 48.46875 -13.484375 C 48.46875 -9.304688 46.941406 -5.800781 43.890625 -2.96875 C 40.847656 -0.132812 36.972656 1.28125 32.265625 1.28125 Z M 32.265625 1.28125 "/></g></g></g></svg>