<svg xmlns="http://www.w3.org/2000/svg" xmlns:xlink="http://www.w3.org/1999/xlink" width="500" zoomAndPan="magnify" viewBox="0 0 375 374.999991" height="500" preserveAspectRatio="xMidYMid meet" version="1.0"><defs><g/><clipPath id="371ad86786"><path d="M 85 36.855469 L 291 36.855469 L 291 243.855469 L 85 243.855469 Z M 85 36.855469 " clip-rule="nonzero"/></clipPath></defs><g clip-path="url(#371ad86786)"><path fill="#b4b4b4" d="M 131.269531 93.476562 C 131.269531 91.625 131.363281 89.777344 131.546875 87.9375 C 131.730469 86.09375 132.003906 84.265625 132.363281 82.453125 C 132.726562 80.636719 133.175781 78.84375 133.714844 77.074219 C 134.253906 75.304688 134.878906 73.5625 135.585938 71.851562 C 136.296875 70.144531 137.085938 68.472656 137.960938 66.839844 C 138.832031 65.210938 139.785156 63.625 140.8125 62.085938 C 141.839844 60.546875 142.941406 59.0625 144.117188 57.632812 C 145.289062 56.203125 146.53125 54.832031 147.839844 53.523438 C 149.148438 52.214844 150.519531 50.972656 151.949219 49.796875 C 153.378906 48.625 154.863281 47.523438 156.402344 46.492188 C 157.941406 45.464844 159.523438 44.515625 161.15625 43.640625 C 162.789062 42.769531 164.460938 41.976562 166.167969 41.265625 C 167.878906 40.558594 169.617188 39.933594 171.386719 39.394531 C 173.160156 38.855469 174.953125 38.40625 176.765625 38.042969 C 178.582031 37.679688 180.410156 37.40625 182.25 37.222656 C 184.09375 37.042969 185.9375 36.949219 187.789062 36.945312 C 262.496094 39.589844 262.640625 147.125 187.980469 149.996094 C 186.125 150 184.277344 149.914062 182.429688 149.734375 C 180.585938 149.558594 178.75 149.289062 176.929688 148.933594 C 175.113281 148.574219 173.3125 148.128906 171.539062 147.59375 C 169.761719 147.058594 168.015625 146.4375 166.300781 145.730469 C 164.585938 145.027344 162.910156 144.238281 161.273438 143.367188 C 159.636719 142.496094 158.046875 141.546875 156.5 140.519531 C 154.957031 139.492188 153.46875 138.390625 152.03125 137.214844 C 150.597656 136.042969 149.222656 134.800781 147.910156 133.492188 C 146.59375 132.183594 145.347656 130.8125 144.167969 129.378906 C 142.992188 127.949219 141.886719 126.460938 140.851562 124.921875 C 139.820312 123.382812 138.863281 121.792969 137.988281 120.160156 C 137.113281 118.523438 136.316406 116.851562 135.605469 115.140625 C 134.894531 113.425781 134.265625 111.683594 133.726562 109.910156 C 133.1875 108.136719 132.734375 106.339844 132.371094 104.519531 C 132.003906 102.703125 131.730469 100.871094 131.546875 99.023438 C 131.363281 97.179688 131.269531 95.328125 131.269531 93.476562 Z M 244.996094 150.019531 C 244.246094 149.558594 243.441406 149.214844 242.589844 148.984375 C 241.734375 148.753906 240.867188 148.652344 239.984375 148.671875 C 239.101562 148.695312 238.242188 148.839844 237.402344 149.113281 C 236.5625 149.382812 235.777344 149.769531 235.046875 150.265625 C 233.363281 151.632812 231.625 152.925781 229.828125 154.144531 C 228.035156 155.359375 226.191406 156.496094 224.296875 157.554688 C 222.40625 158.613281 220.46875 159.589844 218.492188 160.480469 C 216.515625 161.371094 214.503906 162.175781 212.457031 162.894531 C 210.410156 163.613281 208.339844 164.242188 206.238281 164.78125 C 204.136719 165.320312 202.015625 165.769531 199.878906 166.125 C 197.738281 166.484375 195.589844 166.746094 193.425781 166.917969 C 191.265625 167.089844 189.097656 167.167969 186.929688 167.152344 C 184.761719 167.136719 182.597656 167.027344 180.4375 166.828125 C 178.28125 166.625 176.132812 166.332031 174 165.945312 C 171.863281 165.558594 169.75 165.078125 167.660156 164.511719 C 165.566406 163.941406 163.5 163.285156 161.464844 162.539062 C 159.429688 161.789062 157.429688 160.957031 155.464844 160.039062 C 153.5 159.121094 151.578125 158.117188 149.703125 157.03125 C 147.824219 155.949219 145.996094 154.785156 144.21875 153.542969 C 142.441406 152.300781 140.71875 150.984375 139.054688 149.59375 C 138.429688 149.304688 137.777344 149.09375 137.097656 148.964844 C 136.417969 148.835938 135.734375 148.789062 135.042969 148.824219 C 134.355469 148.859375 133.679688 148.980469 133.019531 149.179688 C 132.355469 149.378906 131.730469 149.65625 131.136719 150.007812 C 127.660156 152.320312 124.335938 154.839844 121.167969 157.5625 C 118.003906 160.285156 115.015625 163.191406 112.207031 166.28125 C 109.398438 169.375 106.792969 172.625 104.382812 176.039062 C 101.976562 179.453125 99.789062 183 97.820312 186.683594 C 95.851562 190.367188 94.113281 194.15625 92.613281 198.050781 C 91.109375 201.949219 89.851562 205.921875 88.839844 209.976562 C 87.828125 214.027344 87.070312 218.125 86.5625 222.273438 C 86.058594 226.417969 85.808594 230.578125 85.816406 234.753906 C 85.816406 235.324219 85.871094 235.890625 85.980469 236.449219 C 86.09375 237.007812 86.257812 237.550781 86.476562 238.078125 C 86.695312 238.605469 86.960938 239.105469 87.277344 239.578125 C 87.59375 240.054688 87.953125 240.492188 88.359375 240.894531 C 88.761719 241.300781 89.199219 241.660156 89.671875 241.976562 C 90.148438 242.292969 90.648438 242.558594 91.175781 242.777344 C 91.703125 242.996094 92.246094 243.160156 92.804688 243.273438 C 93.363281 243.382812 93.929688 243.4375 94.5 243.4375 L 281.367188 243.4375 C 281.9375 243.4375 282.503906 243.382812 283.0625 243.273438 C 283.621094 243.160156 284.164062 242.996094 284.691406 242.777344 C 285.21875 242.558594 285.71875 242.292969 286.195312 241.976562 C 286.667969 241.660156 287.105469 241.300781 287.511719 240.894531 C 287.914062 240.492188 288.273438 240.054688 288.589844 239.578125 C 288.90625 239.105469 289.175781 238.605469 289.390625 238.078125 C 289.609375 237.550781 289.773438 237.007812 289.886719 236.449219 C 289.996094 235.890625 290.050781 235.324219 290.050781 234.753906 C 290.050781 230.585938 289.792969 226.4375 289.28125 222.300781 C 288.773438 218.164062 288.011719 214.074219 287.003906 210.03125 C 285.992188 205.988281 284.742188 202.023438 283.246094 198.132812 C 281.753906 194.242188 280.027344 190.457031 278.070312 186.78125 C 276.113281 183.101562 273.941406 179.554688 271.550781 176.140625 C 269.164062 172.726562 266.574219 169.46875 263.789062 166.371094 C 261 163.273438 258.035156 160.359375 254.890625 157.621094 C 251.746094 154.886719 248.449219 152.351562 244.996094 150.019531 Z M 244.996094 150.019531 " fill-opacity="1" fill-rule="nonzero"/></g><g fill="#737373" fill-opacity="1"><g transform="translate(146.356662, 324.442661)"><g><path d="M 39.421875 0 L 37.34375 -25.984375 L 37.078125 -25.984375 L 28.109375 -0.265625 L 22.15625 -0.265625 L 13.171875 -25.984375 L 12.90625 -25.984375 L 10.84375 0 L 0.84375 0 L 4.78125 -43.828125 L 15.40625 -43.828125 L 25.125 -18.546875 L 34.84375 -43.828125 L 45.46875 -43.828125 L 49.40625 0 Z M 39.421875 0 "/></g></g></g><g fill="#737373" fill-opacity="1"><g transform="translate(196.577855, 324.442661)"><g><path d="M 30.765625 -12.328125 L 11 -12.328125 C 11 -10.410156 11.617188 -8.988281 12.859375 -8.0625 C 14.097656 -7.144531 15.441406 -6.6875 16.890625 -6.6875 C 18.410156 -6.6875 19.613281 -6.890625 20.5 -7.296875 C 21.382812 -7.710938 22.394531 -8.519531 23.53125 -9.71875 L 30.328125 -6.328125 C 27.492188 -1.578125 22.785156 0.796875 16.203125 0.796875 C 12.097656 0.796875 8.570312 -0.609375 5.625 -3.421875 C 2.6875 -6.242188 1.21875 -9.632812 1.21875 -13.59375 C 1.21875 -17.5625 2.6875 -20.960938 5.625 -23.796875 C 8.570312 -26.628906 12.097656 -28.046875 16.203125 -28.046875 C 20.523438 -28.046875 24.039062 -26.796875 26.75 -24.296875 C 29.457031 -21.804688 30.8125 -18.238281 30.8125 -13.59375 C 30.8125 -12.957031 30.796875 -12.535156 30.765625 -12.328125 Z M 11.265625 -17.53125 L 21.625 -17.53125 C 21.40625 -18.945312 20.84375 -20.035156 19.9375 -20.796875 C 19.039062 -21.554688 17.882812 -21.9375 16.46875 -21.9375 C 14.90625 -21.9375 13.664062 -21.53125 12.75 -20.71875 C 11.832031 -19.90625 11.335938 -18.84375 11.265625 -17.53125 Z M 11.265625 -17.53125 "/></g></g></g></svg>