<svg xmlns="http://www.w3.org/2000/svg" xmlns:xlink="http://www.w3.org/1999/xlink" width="500" zoomAndPan="magnify" viewBox="0 0 375 374.999991" height="500" preserveAspectRatio="xMidYMid meet" version="1.0"><defs><g/><clipPath id="90b74b2b98"><path d="M 89.898438 31.601562 L 285.828125 31.601562 L 285.828125 227.527344 L 89.898438 227.527344 Z M 89.898438 31.601562 " clip-rule="nonzero"/></clipPath></defs><g clip-path="url(#90b74b2b98)"><path fill="#39becb" d="M 187.792969 31.601562 C 133.726562 31.601562 89.898438 75.429688 89.898438 129.496094 C 89.898438 183.5625 133.726562 227.390625 187.792969 227.390625 C 241.863281 227.390625 285.691406 183.5625 285.691406 129.496094 C 285.691406 75.429688 241.863281 31.601562 187.792969 31.601562 Z M 213.109375 168.652344 L 180.875 136.417969 C 179.03125 134.578125 178.003906 132.089844 178.003906 129.496094 L 178.003906 80.546875 C 178.003906 75.144531 182.390625 70.757812 187.792969 70.757812 C 193.199219 70.757812 197.585938 75.144531 197.585938 80.546875 L 197.585938 125.441406 L 226.953125 154.8125 C 230.769531 158.628906 230.769531 164.835938 226.953125 168.652344 C 223.136719 172.472656 216.929688 172.472656 213.109375 168.652344 Z M 213.109375 168.652344 " fill-opacity="1" fill-rule="nonzero"/></g><g fill="#39becb" fill-opacity="1"><g transform="translate(45.8998, 327.837194)"><g><path d="M 3.078125 -42.25 L 18.171875 -42.25 C 22.234375 -42.25 25.546875 -41.160156 28.109375 -38.984375 C 30.671875 -36.816406 31.953125 -33.722656 31.953125 -29.703125 C 31.953125 -26.585938 31.175781 -23.976562 29.625 -21.875 C 28.070312 -19.78125 25.960938 -18.304688 23.296875 -17.453125 L 37.84375 0 L 25.59375 0 L 12.703125 -16.6875 L 12.703125 0 L 3.078125 0 Z M 12.703125 -23.5 L 13.828125 -23.5 C 14.710938 -23.5 15.460938 -23.515625 16.078125 -23.546875 C 16.691406 -23.585938 17.390625 -23.707031 18.171875 -23.90625 C 18.960938 -24.113281 19.59375 -24.40625 20.0625 -24.78125 C 20.539062 -25.15625 20.953125 -25.703125 21.296875 -26.421875 C 21.640625 -27.140625 21.8125 -28.007812 21.8125 -29.03125 C 21.8125 -30.050781 21.640625 -30.921875 21.296875 -31.640625 C 20.953125 -32.359375 20.539062 -32.90625 20.0625 -33.28125 C 19.59375 -33.65625 18.960938 -33.941406 18.171875 -34.140625 C 17.390625 -34.347656 16.691406 -34.46875 16.078125 -34.5 C 15.460938 -34.539062 14.710938 -34.5625 13.828125 -34.5625 L 12.703125 -34.5625 Z M 12.703125 -23.5 "/></g></g></g><g fill="#39becb" fill-opacity="1"><g transform="translate(82.558463, 327.837194)"><g><path d="M 29.640625 -11.875 L 10.59375 -11.875 C 10.59375 -10.03125 11.191406 -8.664062 12.390625 -7.78125 C 13.585938 -6.894531 14.882812 -6.453125 16.28125 -6.453125 C 17.75 -6.453125 18.910156 -6.644531 19.765625 -7.03125 C 20.617188 -7.425781 21.59375 -8.207031 22.6875 -9.375 L 29.234375 -6.09375 C 26.503906 -1.519531 21.960938 0.765625 15.609375 0.765625 C 11.648438 0.765625 8.253906 -0.585938 5.421875 -3.296875 C 2.585938 -6.015625 1.171875 -9.285156 1.171875 -13.109375 C 1.171875 -16.929688 2.585938 -20.207031 5.421875 -22.9375 C 8.253906 -25.664062 11.648438 -27.03125 15.609375 -27.03125 C 19.773438 -27.03125 23.164062 -25.828125 25.78125 -23.421875 C 28.394531 -21.015625 29.703125 -17.578125 29.703125 -13.109375 C 29.703125 -12.492188 29.679688 -12.082031 29.640625 -11.875 Z M 10.859375 -16.890625 L 20.84375 -16.890625 C 20.632812 -18.253906 20.09375 -19.300781 19.21875 -20.03125 C 18.351562 -20.769531 17.238281 -21.140625 15.875 -21.140625 C 14.375 -21.140625 13.175781 -20.75 12.28125 -19.96875 C 11.394531 -19.1875 10.921875 -18.160156 10.859375 -16.890625 Z M 10.859375 -16.890625 "/></g></g></g><g fill="#39becb" fill-opacity="1"><g transform="translate(113.431611, 327.837194)"><g><path d="M 3.078125 0 L 3.078125 -26.265625 L 12.140625 -26.265625 L 12.140625 -23.5 L 12.234375 -23.5 C 14.585938 -25.851562 17.097656 -27.03125 19.765625 -27.03125 C 21.671875 -27.03125 23.460938 -26.640625 25.140625 -25.859375 C 26.816406 -25.078125 28.082031 -23.863281 28.9375 -22.21875 C 31.59375 -25.425781 34.492188 -27.03125 37.640625 -27.03125 C 40.429688 -27.03125 42.832031 -26.242188 44.84375 -24.671875 C 46.863281 -23.109375 47.875 -20.65625 47.875 -17.3125 L 47.875 0 L 38.8125 0 L 38.8125 -14.84375 C 38.8125 -16.25 38.425781 -17.421875 37.65625 -18.359375 C 36.882812 -19.296875 35.734375 -19.765625 34.203125 -19.765625 C 32.867188 -19.765625 31.851562 -19.363281 31.15625 -18.5625 C 30.457031 -17.757812 30.070312 -16.796875 30 -15.671875 L 30 0 L 20.9375 0 L 20.9375 -14.84375 C 20.9375 -16.25 20.550781 -17.421875 19.78125 -18.359375 C 19.019531 -19.296875 17.867188 -19.765625 16.328125 -19.765625 C 14.929688 -19.765625 13.882812 -19.328125 13.1875 -18.453125 C 12.488281 -17.585938 12.140625 -16.554688 12.140625 -15.359375 L 12.140625 0 Z M 3.078125 0 "/></g></g></g><g fill="#39becb" fill-opacity="1"><g transform="translate(163.86287, 327.837194)"><g><path d="M 3.9375 -40.90625 C 5 -41.96875 6.265625 -42.5 7.734375 -42.5 C 9.203125 -42.5 10.460938 -41.96875 11.515625 -40.90625 C 12.578125 -39.851562 13.109375 -38.59375 13.109375 -37.125 C 13.109375 -35.65625 12.578125 -34.390625 11.515625 -33.328125 C 10.460938 -32.273438 9.203125 -31.75 7.734375 -31.75 C 6.265625 -31.75 5 -32.273438 3.9375 -33.328125 C 2.882812 -34.390625 2.359375 -35.65625 2.359375 -37.125 C 2.359375 -38.59375 2.882812 -39.851562 3.9375 -40.90625 Z M 3.078125 -26.265625 L 3.078125 0 L 12.140625 0 L 12.140625 -26.265625 Z M 3.078125 -26.265625 "/></g></g></g><g fill="#39becb" fill-opacity="1"><g transform="translate(179.32505, 327.837194)"><g><path d="M 3.078125 0 L 3.078125 -26.265625 L 12.140625 -26.265625 L 12.140625 -23.5 L 12.234375 -23.5 C 14.585938 -25.851562 17.097656 -27.03125 19.765625 -27.03125 C 21.054688 -27.03125 22.34375 -26.859375 23.625 -26.515625 C 24.90625 -26.179688 26.132812 -25.65625 27.3125 -24.9375 C 28.488281 -24.21875 29.441406 -23.203125 30.171875 -21.890625 C 30.910156 -20.578125 31.28125 -19.050781 31.28125 -17.3125 L 31.28125 0 L 22.21875 0 L 22.21875 -14.84375 C 22.21875 -16.207031 21.78125 -17.398438 20.90625 -18.421875 C 20.039062 -19.453125 18.910156 -19.96875 17.515625 -19.96875 C 16.148438 -19.96875 14.910156 -19.4375 13.796875 -18.375 C 12.691406 -17.320312 12.140625 -16.144531 12.140625 -14.84375 L 12.140625 0 Z M 3.078125 0 "/></g></g></g><g fill="#39becb" fill-opacity="1"><g transform="translate(213.167756, 327.837194)"><g><path d="M 4.859375 -3.25 C 2.398438 -5.925781 1.171875 -9.207031 1.171875 -13.09375 C 1.171875 -16.988281 2.398438 -20.285156 4.859375 -22.984375 C 7.316406 -25.679688 10.441406 -27.03125 14.234375 -27.03125 C 17.710938 -27.03125 20.582031 -25.941406 22.84375 -23.765625 L 22.84375 -44.03125 L 31.90625 -44.03125 L 31.90625 0 L 22.9375 0 L 22.9375 -2.96875 L 22.84375 -2.96875 C 20.582031 -0.476562 17.710938 0.765625 14.234375 0.765625 C 10.441406 0.765625 7.316406 -0.570312 4.859375 -3.25 Z M 12.5625 -17.5625 C 11.382812 -16.40625 10.796875 -14.921875 10.796875 -13.109375 C 10.796875 -11.296875 11.359375 -9.816406 12.484375 -8.671875 C 13.617188 -7.535156 15.109375 -6.96875 16.953125 -6.96875 C 18.722656 -6.96875 20.179688 -7.546875 21.328125 -8.703125 C 22.472656 -9.867188 23.046875 -11.335938 23.046875 -13.109375 C 23.046875 -14.921875 22.457031 -16.40625 21.28125 -17.5625 C 20.101562 -18.71875 18.660156 -19.296875 16.953125 -19.296875 C 15.210938 -19.296875 13.75 -18.71875 12.5625 -17.5625 Z M 12.5625 -17.5625 "/></g></g></g><g fill="#39becb" fill-opacity="1"><g transform="translate(248.136847, 327.837194)"><g><path d="M 29.640625 -11.875 L 10.59375 -11.875 C 10.59375 -10.03125 11.191406 -8.664062 12.390625 -7.78125 C 13.585938 -6.894531 14.882812 -6.453125 16.28125 -6.453125 C 17.75 -6.453125 18.910156 -6.644531 19.765625 -7.03125 C 20.617188 -7.425781 21.59375 -8.207031 22.6875 -9.375 L 29.234375 -6.09375 C 26.503906 -1.519531 21.960938 0.765625 15.609375 0.765625 C 11.648438 0.765625 8.253906 -0.585938 5.421875 -3.296875 C 2.585938 -6.015625 1.171875 -9.285156 1.171875 -13.109375 C 1.171875 -16.929688 2.585938 -20.207031 5.421875 -22.9375 C 8.253906 -25.664062 11.648438 -27.03125 15.609375 -27.03125 C 19.773438 -27.03125 23.164062 -25.828125 25.78125 -23.421875 C 28.394531 -21.015625 29.703125 -17.578125 29.703125 -13.109375 C 29.703125 -12.492188 29.679688 -12.082031 29.640625 -11.875 Z M 10.859375 -16.890625 L 20.84375 -16.890625 C 20.632812 -18.253906 20.09375 -19.300781 19.21875 -20.03125 C 18.351562 -20.769531 17.238281 -21.140625 15.875 -21.140625 C 14.375 -21.140625 13.175781 -20.75 12.28125 -19.96875 C 11.394531 -19.1875 10.921875 -18.160156 10.859375 -16.890625 Z M 10.859375 -16.890625 "/></g></g></g><g fill="#39becb" fill-opacity="1"><g transform="translate(279.009984, 327.837194)"><g><path d="M 3.078125 0 L 3.078125 -26.265625 L 12.140625 -26.265625 L 12.140625 -22.484375 L 12.234375 -22.484375 C 12.304688 -22.617188 12.414062 -22.785156 12.5625 -22.984375 C 12.71875 -23.191406 13.050781 -23.550781 13.5625 -24.0625 C 14.082031 -24.570312 14.628906 -25.03125 15.203125 -25.4375 C 15.785156 -25.851562 16.535156 -26.222656 17.453125 -26.546875 C 18.378906 -26.867188 19.320312 -27.03125 20.28125 -27.03125 C 21.269531 -27.03125 22.238281 -26.894531 23.1875 -26.625 C 24.144531 -26.351562 24.847656 -26.082031 25.296875 -25.8125 L 26.015625 -25.390625 L 22.21875 -17.71875 C 21.09375 -18.675781 19.523438 -19.15625 17.515625 -19.15625 C 16.421875 -19.15625 15.476562 -18.914062 14.6875 -18.4375 C 13.90625 -17.957031 13.351562 -17.375 13.03125 -16.6875 C 12.707031 -16.007812 12.476562 -15.429688 12.34375 -14.953125 C 12.207031 -14.472656 12.140625 -14.097656 12.140625 -13.828125 L 12.140625 0 Z M 3.078125 0 "/></g></g></g><g fill="#39becb" fill-opacity="1"><g transform="translate(304.507213, 327.837194)"><g><path d="M 14.484375 -27.03125 C 15.992188 -27.03125 17.476562 -26.859375 18.9375 -26.515625 C 20.40625 -26.179688 21.5 -25.84375 22.21875 -25.5 L 23.296875 -24.984375 L 20.328125 -19.046875 C 18.273438 -20.140625 16.328125 -20.6875 14.484375 -20.6875 C 13.460938 -20.6875 12.738281 -20.570312 12.3125 -20.34375 C 11.882812 -20.125 11.671875 -19.707031 11.671875 -19.09375 C 11.671875 -18.957031 11.6875 -18.820312 11.71875 -18.6875 C 11.757812 -18.550781 11.828125 -18.421875 11.921875 -18.296875 C 12.023438 -18.179688 12.117188 -18.082031 12.203125 -18 C 12.296875 -17.914062 12.441406 -17.820312 12.640625 -17.71875 C 12.847656 -17.613281 13.007812 -17.535156 13.125 -17.484375 C 13.25 -17.429688 13.445312 -17.351562 13.71875 -17.25 C 13.988281 -17.15625 14.191406 -17.082031 14.328125 -17.03125 C 14.472656 -16.976562 14.707031 -16.898438 15.03125 -16.796875 C 15.351562 -16.691406 15.597656 -16.625 15.765625 -16.59375 C 16.828125 -16.28125 17.75 -15.9375 18.53125 -15.5625 C 19.320312 -15.1875 20.148438 -14.675781 21.015625 -14.03125 C 21.890625 -13.382812 22.566406 -12.566406 23.046875 -11.578125 C 23.523438 -10.585938 23.765625 -9.457031 23.765625 -8.1875 C 23.765625 -2.21875 19.613281 0.765625 11.3125 0.765625 C 9.4375 0.765625 7.65625 0.476562 5.96875 -0.09375 C 4.28125 -0.675781 3.054688 -1.257812 2.296875 -1.84375 L 1.171875 -2.765625 L 4.859375 -8.953125 C 5.140625 -8.722656 5.5 -8.441406 5.9375 -8.109375 C 6.382812 -7.785156 7.1875 -7.34375 8.34375 -6.78125 C 9.507812 -6.21875 10.515625 -5.9375 11.359375 -5.9375 C 13.242188 -5.9375 14.1875 -6.566406 14.1875 -7.828125 C 14.1875 -8.410156 13.945312 -8.863281 13.46875 -9.1875 C 12.988281 -9.507812 12.175781 -9.875 11.03125 -10.28125 C 9.882812 -10.695312 8.988281 -11.078125 8.34375 -11.421875 C 6.707031 -12.273438 5.410156 -13.238281 4.453125 -14.3125 C 3.492188 -15.382812 3.015625 -16.8125 3.015625 -18.59375 C 3.015625 -21.25 4.046875 -23.316406 6.109375 -24.796875 C 8.179688 -26.285156 10.972656 -27.03125 14.484375 -27.03125 Z M 14.484375 -27.03125 "/></g></g></g></svg>